<svg width="150" height="34" viewBox="0 0 229 34" fill="none" xmlns="http://www.w3.org/2000/svg">
<path d="M39.63 29L45.63 8H51.33L57.3 29H53.97L52.59 24.05H44.37L42.99 29H39.63ZM45.18 21.05H51.78L48.72 10.01H48.24L45.18 21.05ZM60.2351 29V14.21H63.2651V15.95H63.7451C64.0251 15.43 64.4751 14.97 65.0951 14.57C65.7151 14.17 66.5551 13.97 67.6151 13.97C68.7151 13.97 69.5951 14.2 70.2551 14.66C70.9351 15.1 71.4451 15.67 71.7851 16.37H72.2651C72.6051 15.69 73.0951 15.12 73.7351 14.66C74.3951 14.2 75.3251 13.97 76.5251 13.97C77.4851 13.97 78.3351 14.17 79.0751 14.57C79.8151 14.95 80.4051 15.53 80.8451 16.31C81.2851 17.07 81.5051 18.02 81.5051 19.16V29H78.4151V19.4C78.4151 18.5 78.1651 17.81 77.6651 17.33C77.1851 16.83 76.4951 16.58 75.5951 16.58C74.6351 16.58 73.8651 16.89 73.2851 17.51C72.7051 18.13 72.4151 19.02 72.4151 20.18V29H69.3251V19.4C69.3251 18.5 69.0751 17.81 68.5751 17.33C68.0951 16.83 67.4051 16.58 66.5051 16.58C65.5451 16.58 64.7751 16.89 64.1951 17.51C63.6151 18.13 63.3251 19.02 63.3251 20.18V29H60.2351ZM90.5477 29.42C89.4877 29.42 88.5377 29.24 87.6977 28.88C86.8777 28.52 86.2177 27.99 85.7177 27.29C85.2377 26.59 84.9977 25.74 84.9977 24.74C84.9977 23.72 85.2377 22.88 85.7177 22.22C86.2177 21.54 86.8877 21.03 87.7277 20.69C88.5877 20.35 89.5577 20.18 90.6377 20.18H95.1377V19.22C95.1377 18.36 94.8777 17.67 94.3577 17.15C93.8377 16.63 93.0377 16.37 91.9577 16.37C90.8977 16.37 90.0877 16.62 89.5277 17.12C88.9677 17.62 88.5977 18.27 88.4177 19.07L85.5377 18.14C85.7777 17.34 86.1577 16.62 86.6777 15.98C87.2177 15.32 87.9277 14.79 88.8077 14.39C89.6877 13.99 90.7477 13.79 91.9877 13.79C93.9077 13.79 95.4177 14.28 96.5177 15.26C97.6177 16.24 98.1677 17.63 98.1677 19.43V25.52C98.1677 26.12 98.4477 26.42 99.0077 26.42H100.268V29H97.9577C97.2577 29 96.6877 28.82 96.2477 28.46C95.8077 28.1 95.5877 27.61 95.5877 26.99V26.9H95.1377C94.9777 27.2 94.7377 27.55 94.4177 27.95C94.0977 28.35 93.6277 28.7 93.0077 29C92.3877 29.28 91.5677 29.42 90.5477 29.42ZM90.9977 26.87C92.2377 26.87 93.2377 26.52 93.9977 25.82C94.7577 25.1 95.1377 24.12 95.1377 22.88V22.58H90.8177C89.9977 22.58 89.3377 22.76 88.8377 23.12C88.3377 23.46 88.0877 23.97 88.0877 24.65C88.0877 25.33 88.3477 25.87 88.8677 26.27C89.3877 26.67 90.0977 26.87 90.9977 26.87ZM103.272 29V14.21H106.302V16.43H106.782C107.062 15.83 107.562 15.27 108.282 14.75C109.002 14.23 110.072 13.97 111.492 13.97C112.612 13.97 113.602 14.22 114.462 14.72C115.342 15.22 116.032 15.93 116.532 16.85C117.032 17.75 117.282 18.84 117.282 20.12V29H114.192V20.36C114.192 19.08 113.872 18.14 113.232 17.54C112.592 16.92 111.712 16.61 110.592 16.61C109.312 16.61 108.282 17.03 107.502 17.87C106.742 18.71 106.362 19.93 106.362 21.53V29H103.272ZM121.639 29V8H127.729L132.319 26.84H132.799L137.389 8H143.479V29H140.329V10.28H139.849L135.289 29H129.829L125.269 10.28H124.789V29H121.639ZM154.73 29.42C153.23 29.42 151.92 29.11 150.8 28.49C149.68 27.85 148.8 26.96 148.16 25.82C147.54 24.66 147.23 23.32 147.23 21.8V21.44C147.23 19.9 147.54 18.56 148.16 17.42C148.78 16.26 149.64 15.37 150.74 14.75C151.86 14.11 153.15 13.79 154.61 13.79C156.03 13.79 157.27 14.11 158.33 14.75C159.41 15.37 160.25 16.24 160.85 17.36C161.45 18.48 161.75 19.79 161.75 21.29V22.46H150.38C150.42 23.76 150.85 24.8 151.67 25.58C152.51 26.34 153.55 26.72 154.79 26.72C155.95 26.72 156.82 26.46 157.4 25.94C158 25.42 158.46 24.82 158.78 24.14L161.33 25.46C161.05 26.02 160.64 26.61 160.1 27.23C159.58 27.85 158.89 28.37 158.03 28.79C157.17 29.21 156.07 29.42 154.73 29.42ZM150.41 20.09H158.6C158.52 18.97 158.12 18.1 157.4 17.48C156.68 16.84 155.74 16.52 154.58 16.52C153.42 16.52 152.47 16.84 151.73 17.48C151.01 18.1 150.57 18.97 150.41 20.09ZM165.469 29V14.21H168.499V15.95H168.979C169.259 15.43 169.709 14.97 170.329 14.57C170.949 14.17 171.789 13.97 172.849 13.97C173.949 13.97 174.829 14.2 175.489 14.66C176.169 15.1 176.679 15.67 177.019 16.37H177.499C177.839 15.69 178.329 15.12 178.969 14.66C179.629 14.2 180.559 13.97 181.759 13.97C182.719 13.97 183.569 14.17 184.309 14.57C185.049 14.95 185.639 15.53 186.079 16.31C186.519 17.07 186.739 18.02 186.739 19.16V29H183.649V19.4C183.649 18.5 183.399 17.81 182.899 17.33C182.419 16.83 181.729 16.58 180.829 16.58C179.869 16.58 179.099 16.89 178.519 17.51C177.939 18.13 177.649 19.02 177.649 20.18V29H174.559V19.4C174.559 18.5 174.309 17.81 173.809 17.33C173.329 16.83 172.639 16.58 171.739 16.58C170.779 16.58 170.009 16.89 169.429 17.51C168.849 18.13 168.559 19.02 168.559 20.18V29H165.469ZM191.192 29V14.21H194.282V29H191.192ZM192.752 12.2C192.152 12.2 191.642 12.01 191.222 11.63C190.822 11.23 190.622 10.72 190.622 10.1C190.622 9.48 190.822 8.98 191.222 8.6C191.642 8.2 192.152 8 192.752 8C193.372 8 193.882 8.2 194.282 8.6C194.682 8.98 194.882 9.48 194.882 10.1C194.882 10.72 194.682 11.23 194.282 11.63C193.882 12.01 193.372 12.2 192.752 12.2ZM198.868 29V8H201.958V29H198.868ZM206.544 29V14.21H209.634V29H206.544ZM208.104 12.2C207.504 12.2 206.994 12.01 206.574 11.63C206.174 11.23 205.974 10.72 205.974 10.1C205.974 9.48 206.174 8.98 206.574 8.6C206.994 8.2 207.504 8 208.104 8C208.724 8 209.234 8.2 209.634 8.6C210.034 8.98 210.234 9.48 210.234 10.1C210.234 10.72 210.034 11.23 209.634 11.63C209.234 12.01 208.724 12.2 208.104 12.2ZM214.219 29V8H217.309V16.31H217.789C217.989 15.93 218.269 15.56 218.629 15.2C219.009 14.84 219.499 14.55 220.099 14.33C220.719 14.09 221.499 13.97 222.439 13.97C223.559 13.97 224.549 14.22 225.409 14.72C226.289 15.22 226.979 15.93 227.479 16.85C227.979 17.75 228.229 18.84 228.229 20.12V29H225.139V20.36C225.139 19.08 224.819 18.14 224.179 17.54C223.539 16.92 222.659 16.61 221.539 16.61C220.259 16.61 219.229 17.03 218.449 17.87C217.689 18.71 217.309 19.93 217.309 21.53V29H214.219Z" fill="white"/>
<path fill-rule="evenodd" clip-rule="evenodd" d="M17.332 16.1267V33.6171L31.0006 25.5518V10.2305L17.332 16.1267Z" fill="white"/>
<path fill-rule="evenodd" clip-rule="evenodd" d="M13.3105 16.1266V33.592L0.0886393 25.507V10.141L13.3105 16.1266Z" fill="white"/>
<path d="M0 6.42642L15.3208 12.188L31 6.0591L15.3656 0L0 6.42642Z" fill="white"/>
</svg>