<svg width="220" height="56" viewBox="0 0 220 56" fill="none" xmlns="http://www.w3.org/2000/svg">
<g clip-path="url(#clip0_6985_2019)">
<path d="M42.63 38L48.63 17H54.33L60.3 38H56.97L55.59 33.05H47.37L45.99 38H42.63ZM48.18 30.05H54.78L51.72 19.01H51.24L48.18 30.05ZM63.2351 38V23.21H66.2651V24.95H66.7451C67.0251 24.43 67.4751 23.97 68.0951 23.57C68.7151 23.17 69.5551 22.97 70.6151 22.97C71.7151 22.97 72.5951 23.2 73.2551 23.66C73.9351 24.1 74.4451 24.67 74.7851 25.37H75.2651C75.6051 24.69 76.0951 24.12 76.7351 23.66C77.3951 23.2 78.3251 22.97 79.5251 22.97C80.4851 22.97 81.3351 23.17 82.0751 23.57C82.8151 23.95 83.4051 24.53 83.8451 25.31C84.2851 26.07 84.5051 27.02 84.5051 28.16V38H81.4151V28.4C81.4151 27.5 81.1651 26.81 80.6651 26.33C80.1851 25.83 79.4951 25.58 78.5951 25.58C77.6351 25.58 76.8651 25.89 76.2851 26.51C75.7051 27.13 75.4151 28.02 75.4151 29.18V38H72.3251V28.4C72.3251 27.5 72.0751 26.81 71.5751 26.33C71.0951 25.83 70.4051 25.58 69.5051 25.58C68.5451 25.58 67.7751 25.89 67.1951 26.51C66.6151 27.13 66.3251 28.02 66.3251 29.18V38H63.2351ZM93.5477 38.42C92.4877 38.42 91.5377 38.24 90.6977 37.88C89.8777 37.52 89.2177 36.99 88.7177 36.29C88.2377 35.59 87.9977 34.74 87.9977 33.74C87.9977 32.72 88.2377 31.88 88.7177 31.22C89.2177 30.54 89.8877 30.03 90.7277 29.69C91.5877 29.35 92.5577 29.18 93.6377 29.18H98.1377V28.22C98.1377 27.36 97.8777 26.67 97.3577 26.15C96.8377 25.63 96.0377 25.37 94.9577 25.37C93.8977 25.37 93.0877 25.62 92.5277 26.12C91.9677 26.62 91.5977 27.27 91.4177 28.07L88.5377 27.14C88.7777 26.34 89.1577 25.62 89.6777 24.98C90.2177 24.32 90.9277 23.79 91.8077 23.39C92.6877 22.99 93.7477 22.79 94.9877 22.79C96.9077 22.79 98.4177 23.28 99.5177 24.26C100.618 25.24 101.168 26.63 101.168 28.43V34.52C101.168 35.12 101.448 35.42 102.008 35.42H103.268V38H100.958C100.258 38 99.6877 37.82 99.2477 37.46C98.8077 37.1 98.5877 36.61 98.5877 35.99V35.9H98.1377C97.9777 36.2 97.7377 36.55 97.4177 36.95C97.0977 37.35 96.6277 37.7 96.0077 38C95.3877 38.28 94.5677 38.42 93.5477 38.42ZM93.9977 35.87C95.2377 35.87 96.2377 35.52 96.9977 34.82C97.7577 34.1 98.1377 33.12 98.1377 31.88V31.58H93.8177C92.9977 31.58 92.3377 31.76 91.8377 32.12C91.3377 32.46 91.0877 32.97 91.0877 33.65C91.0877 34.33 91.3477 34.87 91.8677 35.27C92.3877 35.67 93.0977 35.87 93.9977 35.87ZM106.272 38V23.21H109.302V25.43H109.782C110.062 24.83 110.562 24.27 111.282 23.75C112.002 23.23 113.072 22.97 114.492 22.97C115.612 22.97 116.602 23.22 117.462 23.72C118.342 24.22 119.032 24.93 119.532 25.85C120.032 26.75 120.282 27.84 120.282 29.12V38H117.192V29.36C117.192 28.08 116.872 27.14 116.232 26.54C115.592 25.92 114.712 25.61 113.592 25.61C112.312 25.61 111.282 26.03 110.502 26.87C109.742 27.71 109.362 28.93 109.362 30.53V38H106.272ZM124.639 38V17H130.729L135.319 35.84H135.799L140.389 17H146.479V38H143.329V19.28H142.849L138.289 38H132.829L128.269 19.28H127.789V38H124.639ZM157.73 38.42C156.23 38.42 154.92 38.11 153.8 37.49C152.68 36.85 151.8 35.96 151.16 34.82C150.54 33.66 150.23 32.32 150.23 30.8V30.44C150.23 28.9 150.54 27.56 151.16 26.42C151.78 25.26 152.64 24.37 153.74 23.75C154.86 23.11 156.15 22.79 157.61 22.79C159.03 22.79 160.27 23.11 161.33 23.75C162.41 24.37 163.25 25.24 163.85 26.36C164.45 27.48 164.75 28.79 164.75 30.29V31.46H153.38C153.42 32.76 153.85 33.8 154.67 34.58C155.51 35.34 156.55 35.72 157.79 35.72C158.95 35.72 159.82 35.46 160.4 34.94C161 34.42 161.46 33.82 161.78 33.14L164.33 34.46C164.05 35.02 163.64 35.61 163.1 36.23C162.58 36.85 161.89 37.37 161.03 37.79C160.17 38.21 159.07 38.42 157.73 38.42ZM153.41 29.09H161.6C161.52 27.97 161.12 27.1 160.4 26.48C159.68 25.84 158.74 25.52 157.58 25.52C156.42 25.52 155.47 25.84 154.73 26.48C154.01 27.1 153.57 27.97 153.41 29.09ZM168.469 38V23.21H171.499V24.95H171.979C172.259 24.43 172.709 23.97 173.329 23.57C173.949 23.17 174.789 22.97 175.849 22.97C176.949 22.97 177.829 23.2 178.489 23.66C179.169 24.1 179.679 24.67 180.019 25.37H180.499C180.839 24.69 181.329 24.12 181.969 23.66C182.629 23.2 183.559 22.97 184.759 22.97C185.719 22.97 186.569 23.17 187.309 23.57C188.049 23.95 188.639 24.53 189.079 25.31C189.519 26.07 189.739 27.02 189.739 28.16V38H186.649V28.4C186.649 27.5 186.399 26.81 185.899 26.33C185.419 25.83 184.729 25.58 183.829 25.58C182.869 25.58 182.099 25.89 181.519 26.51C180.939 27.13 180.649 28.02 180.649 29.18V38H177.559V28.4C177.559 27.5 177.309 26.81 176.809 26.33C176.329 25.83 175.639 25.58 174.739 25.58C173.779 25.58 173.009 25.89 172.429 26.51C171.849 27.13 171.559 28.02 171.559 29.18V38H168.469ZM194.192 38V23.21H197.282V38H194.192ZM195.752 21.2C195.152 21.2 194.642 21.01 194.222 20.63C193.822 20.23 193.622 19.72 193.622 19.1C193.622 18.48 193.822 17.98 194.222 17.6C194.642 17.2 195.152 17 195.752 17C196.372 17 196.882 17.2 197.282 17.6C197.682 17.98 197.882 18.48 197.882 19.1C197.882 19.72 197.682 20.23 197.282 20.63C196.882 21.01 196.372 21.2 195.752 21.2ZM201.868 38V17H204.958V38H201.868ZM209.544 38V23.21H212.634V38H209.544ZM211.104 21.2C210.504 21.2 209.994 21.01 209.574 20.63C209.174 20.23 208.974 19.72 208.974 19.1C208.974 18.48 209.174 17.98 209.574 17.6C209.994 17.2 210.504 17 211.104 17C211.724 17 212.234 17.2 212.634 17.6C213.034 17.98 213.234 18.48 213.234 19.1C213.234 19.72 213.034 20.23 212.634 20.63C212.234 21.01 211.724 21.2 211.104 21.2ZM217.219 38V17H220.309V25.31H220.789C220.989 24.93 221.269 24.56 221.629 24.2C222.009 23.84 222.499 23.55 223.099 23.33C223.719 23.09 224.499 22.97 225.439 22.97C226.559 22.97 227.549 23.22 228.409 23.72C229.289 24.22 229.979 24.93 230.479 25.85C230.979 26.75 231.229 27.84 231.229 29.12V38H228.139V29.36C228.139 28.08 227.819 27.14 227.179 26.54C226.539 25.92 225.659 25.61 224.539 25.61C223.259 25.61 222.229 26.03 221.449 26.87C220.689 27.71 220.309 28.93 220.309 30.53V38H217.219Z" fill="black"/>
<path fill-rule="evenodd" clip-rule="evenodd" d="M20.332 25.1267V42.6171L34.0006 34.5518V19.2305L20.332 25.1267Z" fill="#BF3027"/>
<path fill-rule="evenodd" clip-rule="evenodd" d="M16.3105 25.1267V42.5921L3.08864 34.5071V19.1411L16.3105 25.1267Z" fill="#BF3027"/>
<path d="M3 15.4264L18.3208 21.188L34 15.0591L18.3656 9L3 15.4264Z" fill="#BF3027"/>
</g>
<defs>
<clipPath id="clip0_6985_2019">
<rect width="219.537" height="56" fill="white"/>
</clipPath>
</defs>
</svg>
